<?xml version="1.0" encoding="UTF-8"?>
<svg id="Capa_2" data-name="Capa 2" xmlns="http://www.w3.org/2000/svg" viewBox="0 0 415.76 285.88">
  <defs>
    <style>
      .cls-1 {
        letter-spacing: .08em;
      }

      .cls-2 {
        letter-spacing: .07em;
      }

      .cls-3 {
        letter-spacing: .08em;
      }

      .cls-4 {
        letter-spacing: .1em;
      }

      .cls-5 {
        font-family: FreestyleScript-Regular, 'Freestyle Script';
        font-size: 73.26px;
        letter-spacing: 0em;
      }

      .cls-5, .cls-6, .cls-7 {
        fill: #363744;
      }

      .cls-6 {
        font-family: MontserratRoman-Medium, 'MontserratRoman Medium';
        font-size: 15.21px;
        font-variation-settings: ';
        font-weight: 500;
      }

      .cls-8 {
        fill: #003e89;
      }

      .cls-8, .cls-9 {
        stroke-width: 0px;
      }

      .cls-10 {
        letter-spacing: .08em;
      }

      .cls-11 {
        letter-spacing: .08em;
      }

      .cls-9 {
        fill: #fff;
      }

      .cls-12 {
        letter-spacing: .07em;
      }

      .cls-13 {
        letter-spacing: .01em;
      }

      .cls-14 {
        letter-spacing: .08em;
      }

      .cls-7 {
        font-family: MontserratRoman-Bold, 'MontserratRoman Bold';
        font-size: 22.81px;
        font-variation-settings: ';
        font-weight: 700;
      }
    </style>
  </defs>
  <g id="OBJECTS">
    <path class="cls-8" d="M234.31,154.38c2.44.3,4.77.59,7.14.89.07-.33-.08-.55-.16-.77-1.4-3.75-2.49-7.59-3.3-11.51-.59-2.84-.97-5.72-1.32-8.6-.55-4.61-.56-9.24-.46-13.87.09-3.71.3-7.41.69-11.1.46-4.4,1.06-8.79,2.03-13.11.63-2.78,1.49-5.49,2.45-8.17,1.1-3.09,2.28-6.14,3.78-9.07,1.72-3.35,3.48-6.68,5.66-9.77.18-.26.34-.54.7-.66.46.06.71.44.93.79.49.78.96,1.57,1.4,2.38,2.05,3.75,3.61,7.7,4.91,11.76,1.35,4.23,2.23,8.56,2.81,12.96.7,5.32.95,10.65.78,16.01-.11,3.45-.32,6.89-.67,10.33-.17,1.69-.41,3.37-.61,5.05-.01.11,0,.22,0,.41.32-.61.42-1.21.58-1.79,1.24-4.56,2.91-8.96,4.66-13.33,1.98-4.94,4.19-9.77,6.7-14.47,2.59-4.85,5.49-9.52,8.87-13.86,2.1-2.71,4.38-5.26,7.03-7.45.51-.42,1.02-.84,1.63-1.04.52.14.7.54.88.93.47,1.02.79,2.1,1.12,3.17.78,2.56,1.46,5.14,1.89,7.78.52,3.19.78,6.39.51,9.62-.7,8.35-2.51,16.47-5.07,24.42-2.09,6.48-4.34,12.91-7.07,19.16-2.21,5.06-4.74,9.97-7.51,14.74-.79,1.37-1.62,2.72-2.43,4.08-.06.1-.12.2-.05.41.66.16,1.38.34,2.09.51.73.17,1.46.33,2.18.51.73.17,1.45.36,2.18.54.73.18,1.45.35,2.18.54.72.18,1.45.37,2.17.55.75.19,1.5.39,2.25.59.72.19,1.44.39,2.16.59.72.2,1.44.39,2.16.6.72.21,1.43.42,2.15.64.72.22,1.43.44,2.14.65.72.21,1.44.39,2.15.63.68.24,1.44.29,2.05.65-.05.28-.19.31-.34.34-.74.15-1.48.17-2.23.17-4.52.01-9.03.04-13.55.03-16.74,0-33.48-.02-50.22-.03-10.81-.01-21.63-.03-32.44-.04-14.79-.01-29.57-.02-44.36-.03-9.26,0-18.52,0-27.79-.01-1.81,0-3.62,0-5.43.01-.49,0-.96-.13-1.45-.19-.06,0-.12-.11-.17-.16,0-.32.25-.38.45-.46,2.23-.91,4.47-1.82,6.78-2.52,3.21-.98,6.41-2.02,9.66-2.89.49-.13.71-.4.89-.82,1.44-3.26,2.9-6.51,4.35-9.77.57-1.29,1.14-2.57,1.72-3.86.1-.23.25-.45.25-.78-.95-.19-1.9-.39-2.85-.57-3.04-.6-6.09-1.19-9.13-1.78-.76-.15-1.35-.9-1.28-1.6.08-.73.67-1.24,1.5-1.26.6-.01,1.21,0,1.81.04,1.81.15,3.62.13,5.43.2,1.14.04,2.23-.23,3.32-.45,1.21-.25,2.38-.64,3.54-1.07.55-.21.88-.54,1.12-1.08,1.91-4.43,3.84-8.86,5.79-13.28,3.03-6.86,6.07-13.72,9.11-20.58,1.84-4.15,3.66-8.31,5.49-12.47.07-.16.14-.32.22-.47.52-.97,1.35-1.4,2.43-1.24,1.04.15,1.47.74,1.28,1.85,10.6-.88,21.18-1.73,31.79-2.46.22-.11.26-.35.34-.56.11-.27.17-.55.28-.81.28-.65.79-.99,1.39-.96.72.05,1.27.47,1.49,1.11.19.55.12,1.08-.05,1.61-.28.85-.55,1.7-.87,2.53-2.66,6.83-5.16,13.71-7.68,20.59-.23.62-.26,1.17-.08,1.83,2.24,8.26,4.44,16.54,6.65,24.81,1.03,3.83,2.06,7.66,3.09,11.49.05.19.12.38.2.63,2.15.18,4.3.1,6.45.23,2.12.13,4.25.21,6.37.35,2.15.14,4.29.32,6.41.48.2-.27.06-.5,0-.7-1.38-5.19-2.77-10.38-4.16-15.57-1.63-6.08-3.25-12.15-4.88-18.23-2.46-9.19-4.92-18.37-7.39-27.56-1.67-6.22-3.35-12.43-5.01-18.64-1.38-5.13-2.74-10.27-4.11-15.41-.05-.19-.12-.38-.18-.59-.54-.08-1.06-.01-1.57.02-2.5.16-5,.28-7.49.51-2.63.24-5.26.57-7.88.9-2.19.28-4.39.6-6.57.95-2.07.33-4.14.7-6.2,1.09-2.48.47-4.95,1.02-7.4,1.67-2.42.64-4.77,1.49-7,2.63-1.07.55-2.17,1.07-3.16,1.76-.39.27-.76.21-1.2.12-2.46-.45-4.94-.83-7.45-.76-1.93.05-3.85.07-5.76.38-1.22.2-2.43.42-3.59.88-.2.08-.42.22-.66.04-.43-3.06-1.18-6.05-2.34-8.93-.18-.45-.37-.91-.6-1.33-.22-.39-.2-.76-.03-1.15.89-2,1.75-4,2.9-5.87,1.66-2.69,3.34-5.37,5.3-7.86,2.21-2.81,4.54-5.5,7.04-8.04,2.66-2.71,5.48-5.26,8.43-7.65,3.22-2.61,6.57-5.03,10.11-7.21,4.66-2.87,9.46-5.44,14.44-7.7,2.51-1.14,5.06-2.19,7.67-3.11.19-.07.37-.14.59-.22.07-.76-.14-1.48-.19-2.22-.1-1.49-.19-2.98.07-4.46.09-.48.33-.77.76-.96,1.14-.5,2.29-.71,3.52-.32.48.16.74.4.93.88.7,1.73,1.28,3.51,1.73,5.32.03.13.11.26.17.38.56.11,1.05-.1,1.55-.19,3.42-.66,6.87-1.08,10.33-1.4,4.54-.41,9.08-.41,13.62-.28,5.71.17,11.33,1.06,16.85,2.55,5.2,1.39,10.3,3.06,15.3,5.04,3.77,1.49,7.4,3.29,10.91,5.33,1.34.78,2.67,1.59,3.95,2.46.39.26.64.57.8,1.05.66,1.96,1.11,3.99,1.73,5.96.33,1.04.66,2.08,1.11,3.08.12.27.24.52.14.82-.12.15-.3.17-.47.21-2.22.43-4.27,1.33-6.33,2.22-1.83.8-3.52,1.81-5.1,3.04-1.11.87-2.26,1.69-3.22,2.73-.35.37-.8.44-1.25.51-.71.12-1.42.23-2.14.3-2.07.19-4.09.65-6.1,1.1-3.73.83-7.47,1.63-11.17,2.57-6.36,1.62-12.61,3.55-18.72,5.92-3.67,1.42-7.23,3.12-10.59,5.2-.29.18-.58.37-.91.59,8.93,32.91,17.86,65.81,26.81,98.79ZM186.95,148.93c.34.11.6.21.87.29,3.91,1.15,7.82,2.3,11.73,3.45.36.11.72.16,1.1.15,1.03-.03,2.07-.05,3.1-.06.31,0,.62-.02.91-.12-.1-.6-7.6-28.07-7.92-29.02,0-.02-.03-.05-.05-.05-.03,0-.06,0-.13.01-3.2,8.43-6.4,16.87-9.62,25.37ZM181.27,153.98c.29-.76.57-1.53.89-2.36-1.2-.34-2.32-.66-3.42-.98-.26.26-.3.55-.43.81-.23.47-.51.9-.88,1.27-.19.19-.4.31-.69.25-.48-.1-.96-.15-1.44-.25-2.39-.48-4.78-.99-7.17-1.47-6.28-1.25-12.56-2.48-18.85-3.72-.27-.05-.55-.16-.88,0-1.46,3.32-2.94,6.67-4.42,10.05.91.35,1.76.61,2.56,1.01,1.13.57,2.26.79,3.47.3.18-.07.39-.09.59-.13,4.34-.99,8.71-1.85,13.1-2.56,2.44-.39,4.88-.76,7.33-1.08,2.19-.29,4.39-.52,6.59-.77,1.2-.14,2.4-.25,3.66-.38ZM160.65,127.99c.25,0,.32-.13.4-.24.38-.51.76-1.01,1.13-1.52,4.11-5.76,7.2-12.02,9-18.88.88-3.37,1.34-6.81,1.65-10.28.02-.25.1-.52-.12-.77-.55.04-1.12.09-1.72.13-.14.3-.28.58-.41.86-.96,2.12-1.92,4.24-2.86,6.37-2.53,5.73-5.04,11.47-7.56,17.2-.14.32-.2.63-.16.99.17,1.34.29,2.69.43,4.03.07.7.15,1.41.23,2.11ZM187.77,136.77c-.42.13-.53.35-.69.51-.68.66-1.33,1.35-2.02,2-2.41,2.28-4.97,4.36-7.69,6.26-.15.1-.37.17-.35.42,1.26.5,5.9,1.83,6.57,1.87,1.37-3.63,2.75-7.27,4.18-11.06ZM257.54,150.2c-1.23,2.45-2.55,4.62-4.11,6.79,2.06.39,4.02.71,6.08,1.04-.43-1.34-.87-2.55-1.13-3.81-.27-1.28-.53-2.55-.83-4.02ZM202.95,94.04c-1.02-.04-2.47.12-3.02.36,0,.39,0,.82,0,1.25,0,.43-.01.86-.03,1.29-.02.43-.05.86-.07,1.29-.02.43-.03.86-.05,1.29-.01.43-.02.86-.03,1.29,0,.4-.05.81.03,1.33.38-.72,3.06-7.63,3.16-8.11ZM157.63,126.8c-.61,1.02-3.75,8.22-3.88,8.85.05-.02.1-.03.14-.06,1.43-1.29,2.66-2.78,4-4.15.15-.15.21-.32.18-.55-.15-1.31-.28-2.62-.44-4.1ZM185.31,153.65c.69-.05,1.37-.09,2.05-.14.23-.02.46-.04.68-.06.02,0,.04-.03.05-.05.05-.1-.11-.03.06-.12-.87-.23-1.66-.53-2.52-.63-.17.32-.32.6-.32,1ZM295.48,167.41c-.31-.07-.48-.31-.79-.04.24.17.45.14.79.04ZM123.66,167.25c.02.09.18.1.27-.01,0,0-.02-.05-.03-.06-.1-.03-.26-.02-.24.07Z"/>
    <g>
      <g>
        <path class="cls-9" d="M5.47,225.65c-1.61,0-3.09-.79-4.18-2.23-.83-1.05-1.29-2.3-1.29-3.56,0-.8.19-1.93,2.46-7.69,2.31-5.85,5.48-12.33,9.45-19.27,1.21-2.14,3.42-5.63,6.76-10.65.26-.4.51-.8.77-1.2-.36-.7-.56-1.51-.56-2.4,0-1.94,1.05-3.54,2.87-4.4,1.54-.71,4.07-1.32,7.97-1.93,5.4-.83,10.07-1.25,13.87-1.25,5.82,0,6.11,3.87,6.11,4.65,0,1.72-.82,3.27-2.3,4.35-.89.65-2.03.97-3.49.97-.05,0-.35-.01-.89-.04h-1.11c-1.6,0-3.99.17-7.11.52-1.66.18-3.17.42-4.53.7-.32.8-.92,1.74-1.93,3.05l-1.65,2.55c-.58.86-1.12,1.67-1.62,2.43,2.82-.44,4.95-.66,6.44-.66,3.63,0,5.25,2.42,5.25,4.82,0,1.94-1,3.54-2.69,4.28-.72.34-1.71.54-3.14.61-5.23.32-9.37.9-12.3,1.73-1.16,1.91-2.76,5.02-4.77,9.29-.36.76-.69,1.5-1.01,2.24,1.55-.47,2.79-.8,3.78-1.01,2.45-.48,4.75-.71,6.89-.71,1.8,0,3.13.25,4.2.78,1.56.75,2.48,2.28,2.48,4.19,0,2.02-1.12,3.62-3,4.29l-.12.04c-.52.16-1.24.28-3.04.31-5.73.3-10.97,1.74-15.48,4.27-1.12.62-2.13.92-3.11.92Z"/>
        <path class="cls-9" d="M33.26,223.86c-1.84,0-3.48-.83-4.62-2.35-.8-1.09-1.21-2.36-1.21-3.8,0-1.68.45-3.82,1.38-6.52.84-2.45,2.1-5.46,3.74-8.93,4.18-8.77,8.51-16.11,12.89-21.83,4.1-5.39,7.55-7.9,10.86-7.9,1.6,0,3.05.68,4.06,1.91.9,1.04,1.4,2.37,1.4,3.81,0,4.11-3.04,9.99-9.56,18.49-2.38,3.08-5.17,6.18-8.34,9.24,1.66.46,2.77,1.89,2.77,3.74,0,1.53-.71,3.48-4.15,8.03-3.08,4.1-6.1,6.09-9.23,6.09Z"/>
        <path class="cls-9" d="M73.49,227.94c-3.84,0-6.97-1.8-9.04-5.19-1.26-2.06-1.9-4.43-1.9-7.03,0-5.77,2.53-12.67,7.75-21.08,4.29-6.9,8.89-12.55,13.69-16.8,4.6-4.05,8.59-6.01,12.22-6.01,2.55,0,4.65,1.01,6.08,2.92,1.08,1.42,1.64,3.14,1.64,5.09,0,2.79-.9,5.92-2.67,9.3-1.5,2.82-3.39,5.37-5.62,7.6-2.01,1.97-3.63,2.85-5.27,2.85-.97,0-2.4-.31-3.67-1.8-.77-.89-1.19-1.99-1.19-3.17,0-2.77,2.56-4.66,3.4-5.28,1.76-1.31,3.17-2.74,4.19-4.27,1.08-1.58,1.63-2.76,1.91-3.61-.57.33-1.36.84-2.39,1.66-2.57,2.01-5.34,4.81-8.24,8.32-3.7,4.47-6.54,8.91-8.44,13.19-1.92,4.31-2.89,7.97-2.89,10.87,0,.9.22,1.58.7,2.16.58.72,1.04.81,1.45.81.78,0,3.08-.5,7.58-5.11,1.05-1.09,2.39-2.77,3.97-4.95,1.37-1.84,1.76-2.53,1.86-2.74,1.21-2.35,2.99-2.69,3.93-2.69,2.19,0,3.79,1.58,3.79,3.75,0,1.54-.78,3.66-4.56,8.97-2.39,3.36-5.08,6.16-7.99,8.32-3.52,2.6-6.99,3.92-10.3,3.92Z"/>
        <path class="cls-9" d="M109.47,225.36c-1.97,0-3.82-.79-5.35-2.28-.43-.42-.81-.88-1.13-1.4-1.72,1.58-3.55,2.39-5.46,2.39-2.21,0-4.09-1.07-5.28-3.01-.75-1.22-1.12-2.63-1.12-4.22,0-3.71,1.45-7.71,4.43-12.24,1.39-2.13,2.77-3.74,4.22-4.93,1.49-1.26,2.83-1.86,4.19-1.86,1.14,0,2.2.45,3.05,1.31l.1.11c.08.09.15.18.22.27.87-.62,1.81-.93,2.81-.93,1.19,0,2.31.51,3.17,1.43.83.89,1.26,1.98,1.26,3.15,0,1.23-.48,2.94-2.84,7.24-1.14,2.11-1.31,3.25-1.31,3.75,0,.75.15,1.33.47,1.83.15.11.49.33,1.16.71,1.49.88,2.31,2.37,2.31,4.11,0,1.32-.58,2.53-1.63,3.41-.91.76-2.04,1.17-3.27,1.17Z"/>
        <path class="cls-9" d="M117.22,224.65c-2.72,0-4.96-1.08-6.46-3.12-1.06-1.47-1.58-3.17-1.58-5.07,0-3.08,1.16-6.43,3.54-10.22,2.18-3.44,4.74-6.25,7.63-8.37,2.09-1.5,3.98-2.23,5.78-2.23,3.54,0,5.83,2.34,5.83,5.97,0,1.69-.44,3.36-1.31,5,.64.22,1.23.61,1.72,1.15l.12.14c.62.77.94,1.67.94,2.59,0,1.48-.71,3.26-4.15,7.14-4.25,4.73-8.19,7.02-12.04,7.02ZM120.87,210.89c-1.2,2.03-1.72,3.36-1.93,4.18.54-.25,1.35-.76,2.46-1.76.57-.53,1.11-1.05,1.62-1.58-.77-.21-1.43-.64-1.92-1.23-.08.13-.16.26-.24.39Z"/>
        <path class="cls-9" d="M134.25,224.79c-1.29,0-2.46-.51-3.31-1.43l-.07-.08c-.75-.88-1.15-1.97-1.15-3.17,0-.9.19-2.24,2.52-7.84,2.86-6.87,5.57-12.78,8.05-17.55,2.46-4.78,5.24-9.82,8.26-14.98.86-1.48,1.5-2.43,2.09-3.05,1.23-1.31,2.57-1.58,3.47-1.58,1.44,0,2.71.71,3.58,1.99.57.79.88,1.79.88,2.84,0,1.31-.53,2.7-1.67,4.37-2.39,3.7-4.84,7.87-7.25,12.34.81-.29,1.52-.43,2.19-.43.79,0,1.98.22,3.15,1.24,1.08.96,1.67,2.23,1.67,3.58,0,1.1-.41,2.23-1.33,3.65h.04c2.17,0,3.75,1.62,3.75,3.86,0,1.65-.94,3.69-3.25,7.03-1.76,2.56-3.67,4.59-5.67,6-1.75,1.21-3.43,1.8-5.02,1.8-2.14,0-3.92-1.08-4.89-2.96-.28-.53-.48-1.11-.61-1.71-.41.87-.82,1.77-1.21,2.73-1.09,3.09-3.51,3.33-4.24,3.33Z"/>
        <path class="cls-9" d="M160,223.79c-2.68,0-4.94-1.02-6.53-2.95-1.15-1.43-1.73-3.24-1.73-5.42,0-4.82,2.2-9.52,6.55-13.94,3.69-3.78,7.03-5.62,10.19-5.62,1.27,0,2.48.41,3.5,1.19,1.39,1.12,2.11,2.65,2.11,4.35,0,1.54-.49,3.2-1.51,5.05.4-.14.83-.22,1.3-.22,1.17,0,2.25.53,3.04,1.49l.08.1c.67.9.81,1.76.81,2.33,0,1.89-1.26,3.89-4.35,6.88-1.97,1.92-4.12,3.52-6.38,4.74-2.46,1.33-4.84,2.01-7.08,2.01Z"/>
        <path class="cls-9" d="M195.54,228.01c-1,0-2.9-.33-4.32-2.57-.66-1.01-1.01-2.13-1.01-3.29,0-.9.21-2.36,1.78-6.35,2.18-5.56,4.12-10,5.78-13.2,1.03-1.99,3.09-5.63,6.29-11.14.82-1.38,1.84-3.06,3.07-5.01-1.28-.04-2.42-.66-3.22-1.76-.64-.86-.97-1.91-.97-3.02,0-1.75.74-3.21,2.09-4.11,1.04-.74,2.78-1.61,5.39-2.68,5.31-2.15,9.55-3.19,12.97-3.19,3.21,0,5.92.86,8.03,2.56,2.28,1.83,3.48,4.28,3.48,7.1,0,5.02-2.77,9.3-8.24,12.73-1.19.75-2.43,1.43-3.71,2.06.16.15.32.31.47.47,2.48,2.6,3.75,5.71,3.75,9.21,0,3.86-1.17,7.55-3.48,10.98-2.14,3.1-4.88,5.56-8.17,7.36-3.35,1.81-6.85,2.73-10.42,2.73-1.9,0-3.9-.32-5.97-.97-1.14,1.87-2.83,2.11-3.61,2.11ZM202.15,217.37c.51.1,1.2.17,2.12.17,4.12,0,7.33-1.59,9.81-4.86,2.18-2.87,3.29-5.64,3.29-8.24,0-1.23-.49-2.07-1.63-2.83-.66-.43-1.47-.65-2.46-.65-.13,0-.67.02-1.99.32-.42.1-.86.14-1.3.14-.14,0-.3,0-.49-.03-1.42,2.48-2.98,5.57-4.65,9.22-.88,1.93-1.79,4.2-2.71,6.75ZM218.65,186.68c-.13.22-.37.6-.88,1.38,1-.47,1.99-.99,2.95-1.56,2.97-1.79,4.75-3.62,4.77-4.89-.03-.03-.08-.06-.17-.11-.04-.02-.4-.23-1.49-.23-.65,0-1.36.07-2.13.22-.03,0-.06.01-.1.02-.22,1.01-.76,2.08-1.67,3.29-.22.31-.66.95-1.28,1.9Z"/>
        <path class="cls-9" d="M230.52,223.79c-2.68,0-4.94-1.02-6.53-2.95-1.15-1.43-1.73-3.24-1.73-5.42,0-4.82,2.2-9.51,6.55-13.94,3.69-3.78,7.03-5.62,10.19-5.62,1.27,0,2.48.41,3.5,1.19,1.39,1.12,2.11,2.65,2.11,4.35,0,1.54-.49,3.2-1.51,5.05.4-.14.83-.22,1.3-.22,1.17,0,2.25.53,3.03,1.49l.08.1c.67.9.81,1.77.81,2.34,0,1.89-1.26,3.89-4.35,6.88-1.97,1.92-4.12,3.52-6.38,4.74-2.46,1.33-4.84,2.01-7.08,2.01Z"/>
        <path class="cls-9" d="M260.92,225.51c-1.53,0-3.76-.49-5.65-2.83-.15-.18-.28-.36-.41-.54-1.6,1.38-3.3,2.08-5.06,2.08-2.35,0-4.34-1.17-5.59-3.3-.73-1.27-1.09-2.71-1.09-4.31,0-3.12.96-6.54,2.84-10.15,2.07-3.95,4.63-7.06,7.62-9.23,2.24-1.62,4.5-2.43,6.74-2.43,1.75,0,3.33.6,4.54,1.73,1.2,1.15,1.82,2.54,1.82,4.06,0,.61-.11,1.26-.34,2,.18.5.27,1.01.27,1.51,0,1.09-.42,2.28-1.41,3.98-.6,1.02-1.22,2.41-1.84,4.15-.77,2.14-.93,3.32-.93,3.93,0,.12.01.21.02.27.14.07.33.17.61.3,1.67.8,2.62,2.34,2.62,4.22,0,1.33-.55,2.53-1.55,3.39-.89.77-2,1.19-3.2,1.19Z"/>
        <path class="cls-9" d="M268.85,224.65c-2.72,0-4.96-1.08-6.46-3.12-1.06-1.47-1.58-3.17-1.58-5.07,0-3.08,1.16-6.43,3.54-10.22,2.18-3.44,4.74-6.25,7.63-8.37,2.09-1.5,3.98-2.23,5.78-2.23,3.54,0,5.83,2.34,5.83,5.97,0,1.69-.44,3.36-1.31,5,.64.22,1.23.61,1.71,1.14l.12.14c.62.77.94,1.67.94,2.59,0,1.48-.71,3.26-4.15,7.14-4.25,4.73-8.19,7.02-12.04,7.02ZM272.5,210.89c-1.2,2.03-1.72,3.36-1.93,4.18.54-.25,1.35-.76,2.46-1.76.57-.53,1.12-1.05,1.63-1.58-.77-.21-1.43-.64-1.92-1.23-.08.13-.16.26-.24.39Z"/>
        <path class="cls-9" d="M285.88,224.79c-1.29,0-2.46-.51-3.31-1.43l-.07-.08c-.75-.88-1.15-1.97-1.15-3.17,0-.9.19-2.25,2.52-7.84,2.86-6.86,5.56-12.77,8.05-17.55,2.46-4.78,5.25-9.83,8.26-14.98.86-1.49,1.51-2.43,2.09-3.05,1.23-1.31,2.57-1.58,3.47-1.58,1.43,0,2.71.7,3.58,1.98.57.79.88,1.79.88,2.84,0,1.31-.53,2.7-1.66,4.37-2.39,3.7-4.84,7.86-7.25,12.34.8-.29,1.52-.43,2.19-.43.79,0,1.98.22,3.15,1.24,1.08.97,1.67,2.23,1.67,3.58,0,1.1-.41,2.23-1.33,3.65h.04c2.17,0,3.75,1.62,3.75,3.86,0,1.65-.94,3.69-3.25,7.03-1.76,2.57-3.67,4.59-5.67,6-1.76,1.21-3.43,1.8-5.03,1.8-2.14,0-3.92-1.08-4.89-2.95-.28-.54-.48-1.11-.61-1.71-.41.87-.82,1.77-1.21,2.72-1.09,3.09-3.51,3.33-4.24,3.33Z"/>
        <path class="cls-9" d="M334.91,227.94c-3.84,0-6.97-1.8-9.04-5.2-1.26-2.06-1.9-4.43-1.9-7.03,0-5.77,2.53-12.67,7.75-21.08,4.29-6.9,8.89-12.55,13.69-16.8,4.6-4.05,8.59-6.01,12.22-6.01,2.55,0,4.65,1.01,6.08,2.92,1.08,1.42,1.64,3.14,1.64,5.09,0,2.79-.9,5.92-2.67,9.3-1.5,2.82-3.39,5.37-5.62,7.6-2.01,1.97-3.63,2.85-5.27,2.85-.97,0-2.4-.31-3.67-1.8-.77-.89-1.19-1.99-1.19-3.17,0-2.77,2.56-4.66,3.4-5.28,1.76-1.31,3.17-2.74,4.19-4.26,1.08-1.58,1.63-2.76,1.91-3.61-.57.33-1.36.84-2.39,1.66-2.57,2.01-5.34,4.81-8.24,8.32-3.7,4.47-6.54,8.91-8.44,13.19-1.92,4.31-2.89,7.97-2.89,10.87,0,.9.22,1.58.7,2.16.58.72,1.04.81,1.45.81.78,0,3.08-.5,7.58-5.11,1.05-1.09,2.39-2.76,3.97-4.95,1.37-1.84,1.75-2.52,1.86-2.73,1.21-2.35,2.99-2.69,3.93-2.69,2.19,0,3.79,1.58,3.79,3.75,0,1.54-.78,3.66-4.56,8.97-2.39,3.36-5.08,6.16-7.99,8.32-3.52,2.6-6.98,3.92-10.3,3.92Z"/>
        <path class="cls-9" d="M358.69,223.86c-1.84,0-3.48-.83-4.62-2.34-.81-1.09-1.21-2.37-1.21-3.8,0-1.69.45-3.82,1.38-6.52.84-2.46,2.1-5.46,3.74-8.93,4.17-8.76,8.51-16.1,12.88-21.83,4.1-5.39,7.55-7.9,10.86-7.9,1.6,0,3.05.68,4.07,1.91.9,1.04,1.4,2.37,1.4,3.81,0,4.11-3.04,9.99-9.56,18.49-2.38,3.08-5.18,6.18-8.34,9.24,1.66.46,2.77,1.89,2.77,3.74,0,1.53-.71,3.48-4.15,8.03-3.08,4.1-6.1,6.09-9.23,6.09Z"/>
        <path class="cls-9" d="M386.4,225.36c-1.97,0-3.82-.79-5.35-2.28-.43-.42-.8-.88-1.13-1.4-1.72,1.58-3.55,2.39-5.46,2.39-2.21,0-4.09-1.07-5.28-3.01-.75-1.22-1.12-2.63-1.12-4.21,0-3.71,1.45-7.71,4.43-12.24,1.39-2.13,2.78-3.75,4.22-4.93,1.49-1.26,2.83-1.86,4.19-1.86.79,0,1.97.23,3.05,1.31l.1.11c.08.09.16.18.23.27.87-.62,1.81-.93,2.81-.93,1.19,0,2.32.51,3.17,1.43.82.89,1.26,1.98,1.26,3.15,0,1.23-.48,2.93-2.84,7.23-1.14,2.11-1.31,3.25-1.31,3.75,0,.75.15,1.33.47,1.83.15.11.49.33,1.16.71,1.49.88,2.31,2.37,2.31,4.11,0,1.32-.58,2.53-1.63,3.41-.9.76-2.04,1.16-3.27,1.16Z"/>
        <path class="cls-9" d="M389.98,225.36c-.79,0-2.32-.25-3.6-1.93-.65-.83-1.01-1.84-1.01-2.89,0-.81,0-1.65,4.38-11.36,3.87-8.56,8.42-17.19,13.51-25.64,2.7-4.52,3.52-5.75,3.9-6.26,1.08-1.53,2.37-2.31,3.82-2.31s2.79.69,3.77,1.95c.67.85,1.02,1.9,1.02,3.02,0,1.06-.36,2.18-1.1,3.43-.08.13-.45.74-2.28,3.73-2.24,3.47-4.16,6.61-5.76,9.43,1.61.2,3.03,1.02,4.07,2.37.98,1.22,1.52,2.76,1.52,4.41,0,2.32-.69,4.94-2.1,8.01-1.51,3.26-3.71,6.31-6.53,9.08-2.68,2.66-5.44,4.01-8.18,4.01-.85,0-1.67-.12-2.43-.37-.73.86-1.79,1.33-3.01,1.33ZM399.86,210.43c-.14.21-.28.42-.42.64.04-.07.33-.5.42-.64Z"/>
      </g>
      <text class="cls-5" transform="translate(3.79 223.62)"><tspan x="0" y="0">El Cuche Beach Club</tspan></text>
    </g>
    <text class="cls-7" transform="translate(78.27 257.13)"><tspan class="cls-13" x="0" y="0">T</tspan><tspan class="cls-14" x="11.63" y="0">amaniqu</tspan><tspan class="cls-2" x="108.36" y="0">e</tspan><tspan class="cls-14" x="121.28" y="0">, La Libe</tspan><tspan class="cls-4" x="213.76" y="0">r</tspan><tspan class="cls-11" x="223.52" y="0">tad</tspan></text>
    <text class="cls-6" transform="translate(168.1 282.07)"><tspan class="cls-1" x="0" y="0">El </tspan><tspan class="cls-3" x="17.81" y="0">S</tspan><tspan class="cls-10" x="26.52" y="0">al</tspan><tspan class="cls-12" x="39.79" y="0">v</tspan><tspan class="cls-1" x="48.21" y="0">ador</tspan></text>
  </g>
</svg>